<!-- Generator: Adobe Illustrator 17.0.0, SVG Export Plug-In  -->
<svg version="1.1"
	 xmlns="http://www.w3.org/2000/svg" xmlns:xlink="http://www.w3.org/1999/xlink" xmlns:a="http://ns.adobe.com/AdobeSVGViewerExtensions/3.0/"
	 x="0px" y="0px" width="1024px" height="1024px" viewBox="0 0 1024 1024" enable-background="new 0 0 1024 1024"
	 xml:space="preserve">
<defs>
</defs>
<g>
	<path fill="#FFFFFF" d="M512,1009c-67.101,0-132.188-13.139-193.45-39.051c-59.181-25.031-112.333-60.869-157.982-106.518
		S79.082,764.631,54.05,705.45C28.139,644.188,15,579.102,15,512c0-67.101,13.139-132.188,39.05-193.45
		c25.032-59.181,60.869-112.333,106.518-157.982S259.369,79.082,318.55,54.05C379.812,28.139,444.899,15,512,15
		c67.102,0,132.188,13.139,193.45,39.05c59.181,25.032,112.333,60.869,157.981,106.518s81.486,98.801,106.518,157.982
		C995.861,379.812,1009,444.899,1009,512c0,67.102-13.139,132.188-39.051,193.45c-25.031,59.181-60.869,112.333-106.518,157.981
		s-98.801,81.486-157.981,106.518C644.188,995.861,579.102,1009,512,1009z"/>
	<path fill="#333333" d="M512,30c65.083,0,128.203,12.74,187.607,37.866C757,92.141,808.55,126.899,852.825,171.175
		C897.101,215.45,931.859,267,956.134,324.393C981.26,383.797,994,446.917,994,512s-12.74,128.203-37.866,187.607
		C931.859,757,897.101,808.55,852.825,852.825C808.55,897.101,757,931.859,699.607,956.134C640.203,981.26,577.083,994,512,994
		s-128.203-12.74-187.607-37.866C267,931.859,215.45,897.101,171.175,852.825C126.899,808.55,92.141,757,67.866,699.607
		C42.74,640.203,30,577.083,30,512s12.74-128.203,37.866-187.607C92.141,267,126.899,215.45,171.175,171.175
		C215.45,126.899,267,92.141,324.393,67.866C383.797,42.74,446.917,30,512,30 M512,0C229.23,0,0,229.23,0,512s229.23,512,512,512
		s512-229.23,512-512S794.77,0,512,0L512,0z"/>
</g>
<line fill="none" stroke="#333333" stroke-width="60" stroke-miterlimit="10" x1="512" y1="168.918" x2="512" y2="849.246"/>
<line fill="none" stroke="#333333" stroke-width="60" stroke-miterlimit="10" x1="171.836" y1="511.082" x2="852.164" y2="511.082"/>
</svg>
