<?xml version="1.0" encoding="utf-8"?>
<!-- Generator: Adobe Illustrator 17.0.0, SVG Export Plug-In . SVG Version: 6.00 Build 0)  -->
<!DOCTYPE svg PUBLIC "-//W3C//DTD SVG 1.1//EN" "http://www.w3.org/Graphics/SVG/1.1/DTD/svg11.dtd">
<svg version="1.1" id="Layer_1" xmlns="http://www.w3.org/2000/svg" xmlns:xlink="http://www.w3.org/1999/xlink" x="0px" y="0px"
	 width="1024px" height="1024px" viewBox="0 0 1024 1024" enable-background="new 0 0 1024 1024" xml:space="preserve">
<circle fill="#FFFFFF" cx="510.886" cy="510" r="510"/>
<g>
	<path fill="#333333" stroke="#FFFFFF" stroke-width="22" stroke-miterlimit="10" d="M693.158,559.267
		c0-33.012,26.761-59.772,59.772-59.772c33.012,0,59.772,26.761,59.772,59.772c0,4.094-0.413,8.092-1.196,11.954l-22.712,119.545
		h-71.726l-22.712-119.545C693.57,567.359,693.158,563.362,693.158,559.267z"/>
	<circle fill="#333333" stroke="#FFFFFF" stroke-width="22" stroke-miterlimit="10" cx="752.931" cy="460.031" r="48.578"/>
</g>
<g>
	<path fill="#333333" stroke="#FFFFFF" stroke-width="22" stroke-miterlimit="10" d="M573.375,543.397
		c0-40.986,33.226-74.212,74.212-74.212c40.986,0,74.212,33.226,74.212,74.212c0,5.083-0.512,10.046-1.486,14.843l-28.199,148.423
		h-89.054L574.86,558.24C573.887,553.444,573.375,548.48,573.375,543.397z"/>
	<circle fill="#333333" stroke="#FFFFFF" stroke-width="22" stroke-miterlimit="10" cx="647.586" cy="420.19" r="60.313"/>
</g>
<g>
	<path fill="#333333" stroke="#FFFFFF" stroke-width="22" stroke-miterlimit="10" d="M316,559.988
		c0-33.012-26.761-59.772-59.772-59.772s-59.772,26.761-59.772,59.772c0,4.094,0.413,8.092,1.196,11.954l22.712,119.545h71.726
		l22.712-119.545C315.587,568.08,316,564.083,316,559.988z"/>
	<circle fill="#333333" stroke="#FFFFFF" stroke-width="22" stroke-miterlimit="10" cx="256.228" cy="460.753" r="48.578"/>
</g>
<g>
	<path fill="#333333" stroke="#FFFFFF" stroke-width="22" stroke-miterlimit="10" d="M435.784,544.118
		c0-40.986-33.226-74.212-74.212-74.212s-74.212,33.226-74.212,74.212c0,5.083,0.512,10.046,1.486,14.843l28.199,148.423H406.1
		l28.199-148.423C435.272,554.165,435.784,549.202,435.784,544.118z"/>
	<circle fill="#333333" stroke="#FFFFFF" stroke-width="22" stroke-miterlimit="10" cx="361.572" cy="420.911" r="60.313"/>
</g>
<g>
	<path fill="#5BC0DE" stroke="#FFFFFF" stroke-width="22" stroke-miterlimit="10" d="M610.984,526.061
		c0-55.283-44.815-100.098-100.098-100.098s-100.098,44.815-100.098,100.098c0,6.857,0.691,13.55,2.004,20.02l38.035,200.196
		h120.118L608.98,546.08C610.293,539.611,610.984,532.918,610.984,526.061z"/>
	<circle fill="#5BC0DE" stroke="#FFFFFF" stroke-width="22" stroke-miterlimit="10" cx="510.886" cy="359.875" r="81.352"/>
</g>
</svg>
