<?xml version="1.0" encoding="utf-8"?>
<!-- Generator: Adobe Illustrator 17.0.0, SVG Export Plug-In . SVG Version: 6.00 Build 0)  -->
<!DOCTYPE svg PUBLIC "-//W3C//DTD SVG 1.1//EN" "http://www.w3.org/Graphics/SVG/1.1/DTD/svg11.dtd">
<svg version="1.1" id="Layer_1" xmlns="http://www.w3.org/2000/svg" xmlns:xlink="http://www.w3.org/1999/xlink" x="0px" y="0px"
	 width="512px" height="338.905px" viewBox="0 173.095 512 338.905" enable-background="new 0 173.095 512 338.905"
	 xml:space="preserve">
<path opacity="0.6" fill="none" stroke="#000000" stroke-width="6" stroke-miterlimit="10" d="M343.539,287.835h-33.881
	l-20.279-20.479c0,0-0.1-0.1-0.151-0.1l-0.1-0.1l0,0c-3.012-3.012-7.077-4.919-11.695-4.919H235.27
	c-4.919,0-9.286,2.108-12.348,5.471v0.05l-19.827,20.078h-34.634c-9.336,0-16.865,7.328-16.865,16.665v101.443
	c0,9.336,7.529,16.916,16.865,16.916h175.079c9.286,0,16.865-7.579,16.865-16.916V304.5
	C360.405,295.164,352.825,287.835,343.539,287.835z M340.377,314.689c-3.865,0-7.027-3.162-7.027-7.077
	c0-3.915,3.162-7.077,7.027-7.077s7.027,3.162,7.027,7.077C347.404,311.527,344.242,314.689,340.377,314.689z"/>
<path opacity="0.6" fill="none" stroke="#000000" stroke-width="10" stroke-miterlimit="10" d="M256,315.894
	c-19.375,0-35.036,15.711-35.036,35.136c0,19.375,15.661,35.136,35.036,35.136c19.325,0,35.036-15.711,35.036-35.136
	C291.036,331.605,275.325,315.894,256,315.894z"/>
</svg>
