<?xml version="1.0" encoding="utf-8"?>
<!-- Generator: Adobe Illustrator 17.0.0, SVG Export Plug-In . SVG Version: 6.00 Build 0)  -->
<!DOCTYPE svg PUBLIC "-//W3C//DTD SVG 1.1//EN" "http://www.w3.org/Graphics/SVG/1.1/DTD/svg11.dtd">
<svg version="1.1" id="Layer_1" xmlns="http://www.w3.org/2000/svg" xmlns:xlink="http://www.w3.org/1999/xlink" x="0px" y="0px"
	 width="500px" height="150px" viewBox="0 0 500 150" enable-background="new 0 0 500 150" xml:space="preserve">
<g>
	<defs>
		<path id="XMLID_1_" d="M500,129.589c0,10.816-8.954,19.583-20,19.583H20c-11.046,0-20-8.768-20-19.583V19.583
			C0,8.768,8.954,0,20,0h460c11.046,0,20,8.768,20,19.583V129.589z"/>
	</defs>
	<use xlink:href="#XMLID_1_"  overflow="visible" fill="#36589E"/>
	<clipPath id="XMLID_3_">
		<use xlink:href="#XMLID_1_"  overflow="visible"/>
	</clipPath>
	<rect x="33.368" y="7" clip-path="url(#XMLID_3_)" fill="#FFFFFF" width="109" height="147"/>
	<path clip-path="url(#XMLID_3_)" fill="#36589E" d="M118.354-1.457c-0.042-0.021-0.079-0.051-0.103-0.111
		c-39.417,0-78.834,0-118.251,0v152.457c18.16,0,36.321,0,54.481,0c-0.009-0.366-0.025-0.733-0.026-1.099
		c-0.001-18.97,0-37.939-0.004-56.909c0-1.275,0.168-1.1-1.137-1.102c-5.976-0.006-11.952-0.015-17.927,0.014
		c-0.693,0.003-0.887-0.153-0.884-0.87c0.029-7.057,0.033-14.114-0.004-21.171c-0.004-0.793,0.251-0.902,0.948-0.899
		c6.032,0.026,12.064,0,18.096,0.034c0.755,0.004,0.933-0.199,0.929-0.94c-0.03-5.617-0.04-11.235-0.004-16.852
		c0.033-5.052,0.89-9.953,3.084-14.54c3.752-7.844,10.09-12.37,18.457-14.222c2.874-0.636,5.791-0.865,8.732-0.832
		c5.385,0.061,10.762,0.252,16.126,0.76c0.621,0.059,0.855,0.217,0.852,0.897c-0.028,6.323-0.026,12.646-0.003,18.969
		c0.002,0.654-0.156,0.857-0.835,0.851c-3.777-0.034-7.554-0.013-11.331-0.018c-1.243-0.002-2.479,0.064-3.704,0.28
		c-4.73,0.834-7.081,3.414-7.501,8.218c-0.227,2.593-0.108,5.191-0.126,7.787c-0.019,2.879,0.03,5.759-0.026,8.637
		c-0.016,0.847,0.253,1.008,1.044,1.005c6.906-0.032,13.812-0.002,20.718-0.04c0.848-0.005,0.95,0.271,0.853,1.002
		c-0.921,6.965-1.827,13.931-2.705,20.902c-0.097,0.769-0.296,1.059-1.16,1.052c-5.863-0.05-11.726-0.03-17.589-0.023
		c-1.282,0.001-1.137-0.183-1.137,1.106c-0.004,18.969-0.002,37.939-0.005,56.909c0,0.365-0.033,0.73-0.051,1.095
		c13.306,0,26.613,0,39.919,0c0.055-0.052,0.116-0.083,0.178-0.111H500V-1.457H118.354z"/>
	<g clip-path="url(#XMLID_3_)">
		<path fill="#FFFFFF" d="M184.647,105.84V54.723h10.406v42.434h25.875v8.684H184.647z"/>
		<path fill="#FFFFFF" d="M225.991,86.645c0-3.281,0.809-6.457,2.426-9.527c1.617-3.07,3.908-5.414,6.873-7.031
			c2.965-1.617,6.275-2.426,9.932-2.426c5.648,0,10.277,1.834,13.887,5.502c3.609,3.668,5.414,8.303,5.414,13.904
			c0,5.648-1.823,10.331-5.467,14.045c-3.645,3.715-8.232,5.572-13.764,5.572c-3.422,0-6.686-0.773-9.791-2.32
			c-3.106-1.547-5.467-3.814-7.084-6.803S225.991,90.934,225.991,86.645z M236.116,87.172c0,3.704,0.879,6.539,2.637,8.508
			s3.925,2.953,6.504,2.953c2.578,0,4.74-0.984,6.486-2.953c1.746-1.969,2.619-4.828,2.619-8.578c0-3.656-0.874-6.469-2.619-8.438
			c-1.746-1.969-3.908-2.953-6.486-2.953c-2.579,0-4.746,0.984-6.504,2.953S236.116,83.469,236.116,87.172z"/>
		<path fill="#FFFFFF" d="M271.342,108.301l11.285,1.371c0.188,1.312,0.621,2.215,1.301,2.707c0.937,0.703,2.414,1.055,4.43,1.055
			c2.578,0,4.512-0.387,5.801-1.16c0.867-0.516,1.523-1.348,1.969-2.496c0.304-0.821,0.457-2.333,0.457-4.535v-5.449
			c-2.953,4.031-6.68,6.047-11.18,6.047c-5.016,0-8.988-2.121-11.918-6.363c-2.297-3.352-3.445-7.523-3.445-12.516
			c0-6.258,1.506-11.039,4.518-14.344c3.011-3.305,6.755-4.957,11.232-4.957c4.617,0,8.425,2.027,11.426,6.082v-5.238h9.246v33.504
			c0,4.406-0.364,7.699-1.09,9.879c-0.727,2.18-1.746,3.89-3.059,5.133c-1.313,1.242-3.064,2.215-5.256,2.918
			c-2.192,0.703-4.963,1.055-8.314,1.055c-6.328,0-10.816-1.084-13.465-3.252c-2.649-2.168-3.973-4.917-3.973-8.244
			C271.307,109.168,271.319,108.77,271.342,108.301z M280.167,86.399c0,3.961,0.768,6.861,2.303,8.701
			c1.535,1.84,3.428,2.76,5.678,2.76c2.414,0,4.453-0.943,6.117-2.83c1.664-1.886,2.496-4.681,2.496-8.385
			c0-3.867-0.797-6.738-2.391-8.613c-1.594-1.875-3.609-2.812-6.047-2.812c-2.368,0-4.319,0.92-5.854,2.76
			C280.934,79.819,280.167,82.625,280.167,86.399z"/>
		<path fill="#FFFFFF" d="M316.237,63.442v-9.141h9.879v9.141H316.237z M316.237,105.84V68.504h9.879v37.336H316.237z"/>
		<path fill="#FFFFFF" d="M370.202,105.84h-9.879V86.786c0-4.031-0.211-6.639-0.633-7.822c-0.422-1.183-1.107-2.104-2.057-2.76
			c-0.949-0.656-2.092-0.984-3.428-0.984c-1.711,0-3.247,0.469-4.605,1.406c-1.359,0.938-2.291,2.18-2.795,3.727
			c-0.504,1.547-0.756,4.407-0.756,8.578v16.91h-9.879V68.504h9.176v5.484c3.257-4.219,7.359-6.328,12.305-6.328
			c2.18,0,4.171,0.393,5.977,1.178c1.805,0.786,3.169,1.788,4.096,3.006c0.926,1.219,1.57,2.602,1.934,4.148
			c0.363,1.547,0.545,3.762,0.545,6.645V105.84z"/>
	</g>
</g>
</svg>
