<?xml version="1.0" encoding="utf-8"?>
<!-- Generator: Adobe Illustrator 17.0.0, SVG Export Plug-In . SVG Version: 6.00 Build 0)  -->
<!DOCTYPE svg PUBLIC "-//W3C//DTD SVG 1.1//EN" "http://www.w3.org/Graphics/SVG/1.1/DTD/svg11.dtd">
<svg version="1.1" id="Layer_1" xmlns="http://www.w3.org/2000/svg" xmlns:xlink="http://www.w3.org/1999/xlink" x="0px" y="0px"
	 width="512px" height="512px" viewBox="0 0 512 512" enable-background="new 0 0 512 512" xml:space="preserve">
<g>
	<path fill="#666666" d="M256,178.667c31.196,0,61.445,6.104,89.908,18.143c27.504,11.633,52.211,28.293,73.434,49.516
		c21.223,21.223,37.882,45.929,49.516,73.434c8.794,20.791,14.421,42.538,16.816,64.908H26.327
		c2.395-22.37,8.022-44.117,16.816-64.908c11.633-27.504,28.293-52.211,49.516-73.434c21.223-21.223,45.929-37.882,73.434-49.516
		C194.555,184.771,224.804,178.667,256,178.667 M256,153.667c-141.385,0-256,114.615-256,256h512
		C512,268.282,397.385,153.667,256,153.667L256,153.667z"/>
</g>
<circle fill="none" stroke="#666666" stroke-width="25" stroke-miterlimit="10" cx="255" cy="93.585" r="41"/>
<g>
	<path fill="#666666" d="M486,452.666V487H24v-34.334H486 M511,427.666H-1V512h512V427.666L511,427.666z"/>
</g>
</svg>
