<?xml version="1.0" encoding="utf-8"?>
<!-- Generator: Adobe Illustrator 17.0.0, SVG Export Plug-In . SVG Version: 6.00 Build 0)  -->
<!DOCTYPE svg PUBLIC "-//W3C//DTD SVG 1.1//EN" "http://www.w3.org/Graphics/SVG/1.1/DTD/svg11.dtd">
<svg version="1.1" id="Layer_1" xmlns="http://www.w3.org/2000/svg" xmlns:xlink="http://www.w3.org/1999/xlink" x="0px" y="0px"
	 width="512px" height="512px" viewBox="0 0 512 512" enable-background="new 0 0 512 512" xml:space="preserve">
<g>
	<path fill="#555555" d="M450.235,115c8.477,0,16.567,1.777,22.779,5.002c4.478,2.325,6.455,4.624,6.986,5.537v258.922
		c-0.531,0.913-2.508,3.211-6.986,5.537c-6.212,3.226-14.302,5.002-22.779,5.002H61.765c-8.477,0-16.567-1.777-22.779-5.002
		c-4.478-2.325-6.455-4.624-6.986-5.537V125.539c0.531-0.913,2.508-3.211,6.986-5.537C45.198,116.777,53.288,115,61.765,115H450.235
		 M450.235,85H61.765C28.758,85,2,102.909,2,125v260c0,22.091,26.758,40,59.765,40h388.471C483.242,425,510,407.091,510,385V125
		C510,102.909,483.242,85,450.235,85L450.235,85z"/>
</g>
<g>
	<path fill="#555555" d="M450.235,115c8.477,0,16.567,1.777,22.779,5.002c4.478,2.325,6.455,4.624,6.986,5.537v77.507l-223,49.556
		l-225-50v-77.063c0.531-0.913,2.508-3.211,6.986-5.537C45.198,116.777,53.288,115,61.765,115H450.235 M450.235,85H61.765
		C28.758,85,2,102.909,2,125v101.667l255,56.667l253-56.222V125C510,102.909,483.242,85,450.235,85L450.235,85z"/>
</g>
</svg>
