<?xml version="1.0" encoding="utf-8"?>
<!-- Generator: Adobe Illustrator 17.0.0, SVG Export Plug-In . SVG Version: 6.00 Build 0)  -->
<!DOCTYPE svg PUBLIC "-//W3C//DTD SVG 1.1//EN" "http://www.w3.org/Graphics/SVG/1.1/DTD/svg11.dtd">
<svg version="1.1" id="Layer_1" xmlns="http://www.w3.org/2000/svg" xmlns:xlink="http://www.w3.org/1999/xlink" x="0px" y="0px"
	 width="1024px" height="1024px" viewBox="0 0 1024 1024" enable-background="new 0 0 1024 1024" xml:space="preserve">
<circle fill="#FFFFFF" cx="510.886" cy="510" r="510"/>
<rect x="242.944" y="307.103" fill="#5BC0DE" width="498.958" height="100.897"/>
<g id="aBvBOU.tif">
	<g>
		<path fill="#333333" d="M371.223,765c1.192-5.125,0.578-10.333,0.462-15.481c-0.088-3.853,0.937-5.143,4.981-5.02
			c11.778,0.36,23.591,0.313,35.224-1.921c19.508-3.748,28.036-13.235,30.078-33.181c0.448-4.366,1-8.754,0.954-13.127
			c-0.035-3.32,1.273-3.964,4.237-3.955c30.174,0.08,60.348,0.107,90.521-0.026c3.626-0.016,4.12,1.421,4.241,4.565
			c0.277,7.166,0.743,14.36,2.616,21.341c4.188,15.611,14.394,23.257,33.134,25.216c10.354,1.082,20.725,1.427,31.109,1.114
			c3.469-0.106,4.388,1.045,4.369,4.393c-0.03,5.356-0.722,10.757,0.474,16.084C532.823,765,452.022,765,371.223,765z"/>
		<path fill="#333333" d="M252.423,293.4c160,0,320,0,480,0c0.06,0.332,0.109,0.667,0.146,1.004
			c-1.594,0.062-3.188,0.181-4.782,0.181c-155.51,0.008-311.021,0.008-466.531-0.001c-2.993,0-5.987-0.118-8.98-0.18
			C252.314,294.067,252.363,293.732,252.423,293.4z"/>
		<path fill="#333333" d="M220.917,653.596l-0.522,0.246l-0.372-0.442c0-109.6,0-219.2,0-328.8l0.372-0.442l0.523,0.245
			c0.1,1.991,0.284,3.983,0.284,5.974c0.014,105.748,0.014,211.496,0,317.244C221.201,649.613,221.015,651.605,220.917,653.596z"/>
		<path fill="#333333" d="M764.823,653.4l-0.372,0.442l-0.523-0.245c-0.1-1.992-0.284-3.983-0.284-5.975
			c-0.014-105.748-0.014-211.496,0-317.244c0-1.991,0.186-3.983,0.286-5.974l0.522-0.245l0.372,0.44
			C764.823,434.2,764.823,543.8,764.823,653.4z"/>
		<path fill="#333333" d="M732.569,294.404c16.445,1.619,28.811,13.448,31.36,30c-0.1,1.991-0.286,3.983-0.286,5.974
			c-0.014,105.748-0.014,211.496,0,317.244c0,1.991,0.186,3.983,0.284,5.975c-2.615,17.492-16.354,29.807-33.962,30.432
			c-0.998,0.036-1.999,0.008-2.999,0.008c-156.364,0-312.726,0.004-469.09-0.005c-19.969-0.001-34.164-11.723-36.961-30.437
			c0.1-1.991,0.286-3.983,0.286-5.974c0.014-105.748,0.014-211.496,0-317.244c0-1.992-0.186-3.983-0.284-5.974
			c2.549-16.55,14.915-28.38,31.36-29.999c2.993,0.062,5.987,0.18,8.98,0.18c155.51,0.01,311.021,0.01,466.531,0.001
			C729.381,294.584,730.976,294.467,732.569,294.404z M492.365,590.796c80.788,0,161.575-0.065,242.363,0.138
			c5.736,0.014,7.249-1.291,7.235-7.156c-0.21-86.586-0.203-173.173-0.012-259.759c0.012-5.652-1.176-7.327-7.108-7.32
			c-161.575,0.175-323.15,0.173-484.726,0.007c-5.764-0.006-7.244,1.374-7.231,7.199c0.204,86.586,0.198,173.173,0.008,259.759
			c-0.012,5.66,1.171,7.298,7.108,7.282C330.79,590.723,411.578,590.796,492.365,590.796z"/>
	</g>
</g>
<path fill="#333333" d="M815.823,745c0,11.046-8.059,20-18,20h-117c-9.941,0-18-8.954-18-20V530c0-11.046,8.059-20,18-20h117
	c9.941,0,18,8.954,18,20V745z"/>
<rect x="671.022" y="544" fill="#FFFFFF" width="136" height="169.6"/>
<rect x="671.022" y="544" fill="#5BC0DE" width="136" height="39.2"/>
</svg>
