<?xml version="1.0" encoding="utf-8"?>
<!-- Generator: Adobe Illustrator 17.0.0, SVG Export Plug-In . SVG Version: 6.00 Build 0)  -->
<!DOCTYPE svg PUBLIC "-//W3C//DTD SVG 1.1//EN" "http://www.w3.org/Graphics/SVG/1.1/DTD/svg11.dtd">
<svg version="1.1" id="Layer_1" xmlns="http://www.w3.org/2000/svg" xmlns:xlink="http://www.w3.org/1999/xlink" x="0px" y="0px"
	 width="1024px" height="1024px" viewBox="0 0 1024 1024" enable-background="new 0 0 1024 1024" xml:space="preserve">
<circle fill="#FFFFFF" cx="510.886" cy="510" r="510"/>
<g>
	<polygon fill="#333333" stroke="#FFFFFF" stroke-width="13" stroke-miterlimit="10" points="640.556,320.052 640.556,745.507 
		515.812,684.249 517.802,317.181 	"/>
	<polygon fill="#333333" stroke="#FFFFFF" stroke-width="13" stroke-miterlimit="10" points="389.468,442.216 389.468,867.67 
		514.212,806.412 512.223,439.344 	"/>
	<polygon fill="#333333" stroke="#FFFFFF" stroke-width="13" stroke-miterlimit="10" points="512.223,211.121 550.502,195.27 
		579.802,224.564 621.234,224.568 637.093,262.844 675.369,278.703 675.373,320.135 704.667,349.435 688.816,387.714 
		704.667,425.994 675.373,455.294 675.369,496.725 637.093,512.584 621.234,550.861 579.802,550.865 550.502,580.158 
		512.223,564.307 473.943,580.158 444.644,550.865 403.212,550.861 387.353,512.584 349.077,496.725 349.072,455.294 
		319.779,425.994 335.63,387.714 319.779,349.435 349.072,320.135 349.077,278.703 387.353,262.844 403.212,224.568 
		444.644,224.564 473.943,195.27 	"/>
	<circle fill="#5BC0DE" stroke="#FFFFFF" stroke-width="10" stroke-miterlimit="10" cx="512.223" cy="387.714" r="122.755"/>
</g>
</svg>
